<?xml version="1.0" encoding="UTF-8"?>
<!DOCTYPE svg PUBLIC "-//W3C//DTD SVG 1.1//EN" "http://www.w3.org/Graphics/SVG/1.1/DTD/svg11.dtd">
<!-- Creator: CorelDRAW -->
<svg xmlns="http://www.w3.org/2000/svg" xml:space="preserve" width="214.963mm" height="47.0283mm" version="1.1" style="shape-rendering:geometricPrecision; text-rendering:geometricPrecision; image-rendering:optimizeQuality; fill-rule:evenodd; clip-rule:evenodd"
viewBox="0 0 6346.82 1388.52"
 xmlns:xlink="http://www.w3.org/1999/xlink"
 xmlns:xodm="http://www.corel.com/coreldraw/odm/2003">
 <defs>
  <style type="text/css">
   <![CDATA[
    .fil0 {fill:#FDD100}
    .fil1 {fill:#00A2E9}
   ]]>
  </style>
 </defs>
 <g id="Layer_x0020_1">
  <metadata id="CorelCorpID_0Corel-Layer"/>
  <path class="fil0" d="M6125.97 805.29c33.2,-31.59 189.73,-268.17 218.97,-328.37 -107.19,-5.39 -74.68,-11.61 -145.59,99.59l-68.46 97.16c-0.65,-1.49 -3.18,2.99 -4.92,4.29 -132.81,-154.54 -79.85,-221.51 -216.7,-198.2l1.2 433.56 75.44 -0.27 5.05 -304.08 135 196.33z"/>
  <path class="fil0" d="M1452.08 737.3c81.41,-85.35 161.28,-176.63 242.4,-260.39 -26.57,0.88 -81.96,0.79 -108.53,1.67l-173.1 178.99c2.18,48.28 -0.54,96.71 -8.35,144.24 12.69,-21.15 29.39,-46.17 47.57,-64.51z"/>
  <path class="fil0" d="M4835.53 913.32c33.74,0 23.07,-30.44 23.11,-68.99l-230.52 -5.91 0 -364.11 -76.17 2.28 2.41 435.89 281.17 0.83z"/>
  <polygon class="fil0" points="5111.7,727.3 5243.96,728.96 5246.51,913.31 5321.01,913.32 5321.36,472 5244.36,472 5243.11,655.68 5108.98,658.64 "/>
  <polygon class="fil0" points="1950.17,729.32 2082.43,730.98 2085.15,915.33 2158.48,915.33 2158.74,474.02 2082.83,474.02 2081.58,657.85 1946.09,659.54 "/>
  <path class="fil0" d="M2507.59 909.44c27.56,-4.57 54.02,-20.54 75.16,-36.71 171.16,-130.92 64.87,-398.39 -98.67,-392.97l0.71 59.94c54.71,48.99 106.31,41.99 106.02,156.57 -0.21,83.91 -46.14,124.73 -107.17,149.89 0,43.4 -11.75,69.2 23.95,63.28z"/>
  <path class="fil0" d="M5586.46 472.96c31.05,79.57 55.08,166.62 87.27,250.44 86.75,225.86 47.58,187.44 148.95,187.44 -2.26,-62.83 -127.77,-350.25 -153.27,-440.6l-82.95 2.73z"/>
  <path class="fil0" d="M2417.96 853.09c-27.45,-26.27 -51.84,-18.2 -80.2,-60.31 -47.88,-71.09 -39.09,-180.33 42.23,-232.96 37.35,-24.17 42.43,2.77 35.68,-82.37 -106.39,25.02 -185.54,90.68 -185.23,218.9 0.28,115.99 81.58,200.08 187.51,216.63l0 -59.89z"/>
  <polygon class="fil0" points="4954.99,913.32 5031.97,913.03 5032.21,472.82 4953.8,476.31 "/>
  <polygon class="fil0" points="1793.46,914.46 1870.43,914.18 1870.67,473.97 1792.27,477.46 "/>
  <polygon class="fil1" points="3835.03,913.31 3910.79,913.32 3911.14,472 3832.76,472 "/>
  <polygon class="fil0" points="2761.31,545.31 3086.83,545.54 3088.56,475.01 2758.6,477.46 "/>
  <path class="fil0" d="M5410.2 911.09c90.16,0 63.61,30.99 133.26,-138.6 38.37,-93.45 51.22,-98.94 -2.59,-195.18l-130.67 333.78z"/>
  <polygon class="fil0" points="2761.34,914.08 3085.71,913.09 3087.4,843.89 2758.6,846.16 "/>
  <path class="fil0" d="M6344.91 595.26c-22.46,23.69 -71.18,88.83 -75.65,121.13 -5.26,38 -1.76,152.65 0.69,195.89l76.88 1.04 -1.92 -318.05z"/>
  <polygon class="fil0" points="2758.6,727.1 3055.87,727.48 3055.89,658.37 2793.16,657.91 2758.6,660.65 "/>
  <path class="fil0" d="M1493.39 770.77l84.31 111.87c32.63,43.29 53.84,32.93 115.59,30.39 -13.66,-26.81 -118.82,-161.5 -144.93,-186.59l-54.97 44.33z"/>
  <polygon class="fil1" points="4192.54,913.31 4268.31,913.32 4268.66,472 4190.28,472 "/>
  <path class="fil0" d="M3292.11 761.5c123.25,-0.87 70.32,-21.19 204.3,153.05l84.15 -2.67 -108.88 -160.18c86.2,-23.97 151.69,-157.09 57.13,-237.58 -58.09,-52.45 -220.22,-44.44 -319.18,-39.11l3.33 69.32c54.38,2.98 197.89,-6.44 238.16,10.78 59.52,25.44 56.9,118.38 -23.93,133.81l-213.59 3.47 -3.97 225.73 81.34 -3.7 1.15 -152.93z"/>
  <path class="fil1" d="M224.1 1175.87c-19.09,-19.01 -36.63,-41.21 -52.56,-62.57 -20.49,-27.48 -39.72,-56.05 -58.16,-84.93 -40.81,-63.95 -59.86,-129.21 -79.19,-201.55l-25.75 4.28c-0.98,0.17 -1.9,-0.14 -2.6,-0.85 -0.69,-0.71 -0.97,-1.64 -0.79,-2.62 12.23,-63.87 16.28,-128.24 15.94,-193.18 -0.3,-56.15 -4.12,-111.92 -5.94,-167.99 -1.4,-43.21 -2.01,-91.58 8.17,-133.79 9.07,-37.62 26.62,-68.59 59.31,-90.32 17.92,-11.91 14.37,-9.64 35.49,-13.9 1.35,-0.27 2.66,0.39 3.25,1.63 0.59,1.24 0.27,2.68 -0.79,3.55l-10.33 8.49c-75.02,62.95 -99.69,156.33 -75.4,250.15 1.05,4.04 2.6,12.02 4.14,16.34 0.35,0.19 0.68,0.43 0.99,0.7 10.7,-18.94 20.84,-38.64 28.07,-59.14 4.78,-13.55 8.15,-27.48 13.19,-40.97 8.18,-21.94 20.09,-43.04 32.2,-63 25.72,-42.4 54.93,-83.8 83.88,-124.14 -15.76,-0.35 -27.38,2.24 -43.39,5.21 -15.71,2.92 -26.42,1.88 -40.69,-5.95 -1.14,-0.63 -1.72,-1.86 -1.48,-3.14 0.24,-1.28 1.23,-2.21 2.52,-2.38 40.99,-5.23 80.9,-14.66 118.02,-33.21 28.64,-14.31 52.66,-32.75 77.93,-52.01 29.43,-22.43 57.57,-42.2 90.69,-59.1 48.78,-24.9 101.89,-41.27 155.17,-53.3 74.2,-16.76 145.96,-23.95 221.53,-12.85 62.73,9.22 123.32,29.98 184.12,47.33 18.1,5.17 38.27,2.58 56.64,0.3 25.66,-3.19 49.27,-5.85 75.28,-3.85 1.5,0.12 2.66,1.31 2.73,2.81 0.07,1.5 -0.98,2.8 -2.46,3.05l-78.95 13.37c17.51,23 76.42,57.42 104.08,68.81 -0.96,-14.85 -3.87,-29.09 -10.89,-42.45 -5.63,-10.73 -13.36,-19.65 -19.98,-29.68 -0.7,-1.06 -0.66,-2.38 0.1,-3.4 0.76,-1.02 2.02,-1.42 3.23,-1.05 12.67,3.92 27.7,10.06 35.18,21.72 5.55,8.66 5.9,18.43 6.07,28.4 0.56,32.79 7.12,49.75 32.96,72.14 208.63,180.81 280.63,502.41 173.85,756.34 -33.71,80.16 -98.27,192.34 -171.01,241.12 9.59,48.29 30.87,78.26 13.67,130.61 -15.21,46.3 -44.12,65.91 -92.56,69.28 1.28,0.63 2.58,1.3 3.9,2.01 1.18,0.64 1.77,1.93 1.48,3.24 -0.3,1.31 -1.38,2.23 -2.72,2.3 -44.71,2.43 -91.31,0.32 -129.31,-25.86 -22.5,-15.5 -31.49,-28.2 -61.65,-23.58 -17.78,2.73 -34.41,8.47 -51.73,13.07 -28.6,7.6 -57.23,11.54 -86.7,13.88 -97.27,7.73 -190.45,1.72 -281.93,-34.19 -72.55,-28.48 -136,-72.51 -202.25,-112.69 -47.1,-28.57 -100.22,-37.48 -146.81,-69.21 -100.98,-68.77 -135.25,-186.95 -131.6,-304.25 0.05,-1.52 1.22,-2.74 2.73,-2.85 1.51,-0.11 2.85,0.92 3.12,2.42l10.84 59.79c0.02,0.11 0.03,0.2 0.04,0.32 4.68,65.79 28.85,132.6 69.39,184.84 34.03,43.86 81.72,79.48 137.71,86.45zm862.75 203.02c-0.12,-0.19 -0.23,-0.39 -0.31,-0.61 -0.46,-1.24 -0.07,-2.59 0.99,-3.39 2.26,-1.7 6.49,-6.81 9.39,-4.34 2.33,-1.52 7.28,-5.78 9.58,-7.04 25.94,-14.24 54.1,-33.73 64.26,-62.94 10.96,-31.53 -1.55,-67.34 -15.64,-96.07 -36.1,20.36 -67.2,47.45 -103.51,67.86 -36.49,20.51 -75.17,36.34 -112.1,56.09l64.93 34.72c16.17,4.94 29.54,5.93 46.13,7.25 13.62,1.08 24.49,3.13 36.27,8.46zm-1026.76 -727.39c-1.9,10.34 -3.51,20.56 -2.03,31.3 0.17,1.26 0.54,2.71 0.86,3.99l11.05 21.39c0.46,0.89 0.45,1.85 -0.01,2.73 -19.75,37.52 0.6,120.32 12.62,158.01 27.02,84.77 74.04,167.19 131.41,234.99 173.76,205.36 417.21,258.94 673.64,199.99 -10.44,-21.92 -25.56,-39.21 -38.8,-59.5 -1.87,-2.87 -38.22,-61.14 -39.83,-61.62 -0.07,-0.01 -7.23,1.35 -8.52,1.39 -9.46,0.3 -20.95,-3.66 -29.59,-7.09 -5.49,-2.18 -11.47,-4.29 -16.83,-6.72 -2.88,-1.31 -4.31,-3.34 -2.23,-5.92 -0.93,-2.44 -7.47,-8.4 -8.91,-9.67 -7.67,-6.8 -17.21,-16.04 -27.5,-18.42 -4.91,-1.14 -10.43,-1.51 -15.46,-2.04 -9.58,-1 -19.02,-2.28 -28.52,-3.92 -60.32,-10.44 -110.88,-27.99 -165.41,-55.19 -42.9,-21.4 -82.26,-43.91 -127.74,-59.56l-9.39 -42.53c3.41,6.82 7.39,13.11 12.07,18.68 12.97,15.44 30.53,26.21 48.25,35.4 25.7,13.34 53.17,24.66 79.57,36.63 46.48,21.08 99.39,35.41 149.12,47.19 34.97,8.28 68.45,11.21 99.28,-9.72 21.42,-14.54 29.82,-22.63 55.31,-6.26 0.29,0.18 0.51,0.38 0.72,0.65 12.86,16.21 23.4,30.33 19.45,51.59 -4.16,22.34 0.02,34.83 10.2,55.52 16.48,33.52 42.27,60.73 60.75,92.83 117.32,-19.87 222.74,-106.34 294.77,-197.12 82.04,-103.4 141.14,-236.01 151.1,-368.42 10.66,-141.69 -29.07,-281.72 -105.38,-400.83 -33.41,-52.14 -69.61,-96.33 -118.71,-134.3 -47.47,-36.71 -105,-84.84 -166.33,-93.21 -4.52,10.74 -17.46,35.63 -17.93,41.61 -0.3,3.8 4.22,19.45 5.23,23.91 2.79,12.17 5.21,25.96 3.91,38.44 -4.63,44.61 -53.13,33.6 -83.01,23.31 -0.96,-0.33 -1.63,-1.05 -1.89,-2.04 -3.92,-14.86 -9.79,-38.71 -6.16,-54.03 2.64,-11.12 9.56,-16.44 19.44,-21.1 11.59,-5.47 21.86,-9.01 32.75,-16.38 15.98,-10.82 28.07,-25.77 37.83,-42.25 -0.62,-0.77 -1.15,-1.5 -1.77,-2.05 -2.73,-2.48 -10.25,-6.4 -13.5,-8.26 -69.93,-40.24 -235.83,-47.46 -316.01,-37.05 -100.1,12.99 -199.85,49.36 -282.33,108.03 -72.06,51.26 -147.64,131.03 -191.92,207.67 -25.03,43.32 -44.39,88.69 -58.92,136.54 -6.82,22.48 -19.19,57.31 -19.06,80.81 0.05,9.73 2.02,19.14 4.4,28.54 3.5,13.82 7.64,27.59 11.49,41.35 1.27,-0.62 2.58,-1.26 3.89,-1.93l-14.89 26.19 -10.5 -21.53zm33.55 28.68c1.14,1.25 2.26,2.54 3.3,3.83 15.9,19.66 30.19,41.89 44.21,62.95 17.97,26.99 36,53.89 55.44,79.87 38.71,51.72 86.63,105.11 145.07,134.61l14.07 48.7 0 0.01c-8.78,-15.22 -17.03,-27.37 -23.25,-32.51 -10.99,-9.08 -23.08,-16.08 -34.27,-24.88 -9.03,-7.1 -17.79,-14.56 -26.42,-22.13 -50.53,-44.34 -161.77,-171.86 -182.49,-241.29l4.35 -9.14zm256.46 207.88l0 0.01 -0 -0.01 0 -0z"/>
  <path class="fil0" d="M85.48 646.85l-14.89 26.19 1.23 2.52c0.22,0.56 0.82,2.12 1.19,3.4 -1.69,0.79 -2.11,2.92 -0.71,5.09 2.18,3.39 5.09,6.93 7.53,10.16 0.62,0.82 1.54,1.24 2.57,1.16 1.03,-0.07 1.88,-0.62 2.37,-1.52 1.29,-2.35 2.57,-4.64 3.83,-6.87 0.21,0.77 0.45,1.56 0.68,2.34l4.35 -9.14 -0.67 -0.73c26,-44.04 48.13,-64.14 96.11,-93.65 18.12,-11.15 43.41,-26.41 64.12,-31.94 9.11,-2.43 16.82,-2.98 25.24,1.63 8,4.38 12.49,8.71 22.05,10.82 15.11,3.35 33.76,-1.66 48.02,-6.45 0.91,-0.3 1.55,-0.95 1.86,-1.85 11.73,-34.73 11.95,-81.45 -36.22,-82.25 -24.37,-0.4 -28.73,7.98 -41.08,25.59 -3.03,4.31 -13.12,17.38 -9.39,23.87 -1.26,0.81 -2.67,1.65 -3.49,2.17 -6.04,3.86 -12.06,7.73 -18.05,11.66 -10.21,6.69 -20.58,12.68 -31.56,18.02 -8.24,4.01 -16.67,7.61 -24.85,11.73 -25.75,12.98 -47.94,32.19 -68.94,51.68 -6.2,5.76 -11.86,12.37 -17.95,17.89 -3.58,3.24 -8.52,6.04 -13.33,8.48z"/>
  <path class="fil0" d="M341.65 961.44l14.07 48.7 0 0.01c20.3,35.17 43.48,86.76 51.32,106.25 1.3,3.22 5.95,12.97 7.06,16.83 -3.94,5.32 -4.16,14.8 -4.44,20.92 -0.27,5.79 -0.72,11.65 -1.71,17.37 -0.44,2.53 -1.2,5.36 -1.31,7.9 -0.28,6.19 6.12,20.98 8.28,26.78 0.41,1.12 1.39,1.85 2.58,1.92l69.6 4.37c1.35,0.09 2.55,-0.72 2.98,-2 25.84,-76.01 6.33,-88.72 -66.74,-88.79 -5.7,-19.55 -13.37,-35.6 -22.76,-53.69 -9.16,-17.67 -16.54,-33.63 -22.32,-52.36l-9.39 -42.53c-12.15,-24.34 -16.86,-55.48 -18.78,-85.02l-0 -0.01 0 -0c-1.15,-17.68 -1.3,-34.79 -1.46,-49.52 21.55,-52.41 74.32,-31.08 23.78,-105.09 -0.55,-0.81 -1.38,-1.26 -2.36,-1.29l-59.11 -1.46c-1.41,-0.04 -2.62,0.9 -2.95,2.27 -6.06,25.58 -12.11,35.07 -1.69,61.43 1.97,4.97 7.33,18.91 12.37,21.64 2.7,1.46 4.29,0.66 5.66,-0.7 1.98,6.19 4.87,20.96 5.43,23.73 3.98,19.5 5.39,42.37 7.04,62.28 1.64,19.98 2.91,40.12 4.85,60.08z"/>
  <path class="fil0" d="M1006.51 454.21c-11.75,-24.76 -32.51,-41.28 -52.18,-59.64 -7.02,-6.55 -13.23,-12.38 -20.56,-18.69 -83.39,-71.81 -205.69,-119.37 -314.59,-130.82 -10.74,5.22 -23.41,19.7 -33.86,27.25 -16.33,11.8 -32.51,14.91 -50.89,4.49 -34.28,-19.42 -32.06,-74.31 7.67,-87.19 52.42,-16.99 46.17,24.98 85.75,39.92 13.07,4.93 27.51,7.28 41.26,9.48 18.59,2.97 36.84,5.83 55.2,10.17 61.51,14.53 117.48,42.73 170.37,76.83 26.15,16.86 50.2,35.11 72.72,56.57 12.64,12.05 25.29,26.38 39.14,36.87l23.56 12.48c14.92,-12.42 24.87,-20.4 37.74,-36.63 16.87,-21.28 12.55,-46.18 19.17,-70 9.8,-35.23 49.23,-20.57 73.64,-11.1 0.92,0.35 1.55,1.07 1.79,2.02 3.68,14.46 10.72,42.57 3.98,56.91 -5.23,11.12 -17.58,13.19 -28.49,15.11 -16.69,2.93 -30.4,5.56 -45.68,13.63 -22.92,12.12 -40.5,32.19 -54.38,53.74 27.99,44.55 55.43,91.24 77.25,139.15 11.98,26.29 22.62,53.86 28.75,82.16 3.54,16.35 4.75,31.79 7.07,48.16 2.05,14.46 5.54,25.75 13.13,38.47 4.92,8.26 10.41,15.42 17.39,22.03 3.9,3.7 9.15,7.69 12.03,12.19 8.39,13.12 -3.74,44.33 -8.05,57.41 -0.43,1.29 -1.62,2.1 -2.97,2.02l-67.67 -3.87c-1.21,-0.07 -2.21,-0.81 -2.61,-1.95 -12.97,-36.36 -14.81,-46.15 10.73,-77.33 4.25,-5.19 8.27,-1.36 10.34,-9.8 1.1,-4.46 3.58,-4.53 5.42,-5.84 -9.48,-89.31 -29.02,-160.07 -76.76,-236.54l-42.17 -53.18c-40.85,16.56 -74.38,49.37 -113.77,70.05 -36.37,19.1 -74.47,38.41 -113.87,50.48 -13.06,4 -26.31,7.31 -39.49,10.87 -17.94,4.85 -35.6,10.21 -53.2,16.19 -2.66,0.9 -30.44,9.69 -30.84,13.08 -0.43,3.64 0.02,4.85 -1.73,8.63 -3.07,6.6 -10.19,13.4 -15.53,18.16 -18.67,16.6 -43.05,25.86 -59.7,1.88 -13,-18.72 -14.49,-48.7 -9.88,-70.54 0.22,-1.08 0.97,-1.89 2.02,-2.21 13.34,-4.12 35.05,-10.44 49.16,-8.36 8.59,1.27 12.63,4.95 17.41,11.61 4.18,5.82 7.09,9.19 14.31,11.27 13.32,3.84 34.53,0.24 47.77,-2.39 105.92,-21.05 204.48,-85.73 294.13,-143.19z"/>
 </g>
</svg>
